<svg xmlns="http://www.w3.org/2000/svg" xmlns:xlink="http://www.w3.org/1999/xlink" version="1.1" class="marks" width="1924.23125" height="946" viewBox="0 0 1924.23125 946" style="background-color: white;"><g fill="none" stroke-miterlimit="10" transform="translate(160,228)"><g class="mark-group role-frame root" role="graphics-object" aria-roledescription="group mark container"><g transform="translate(0,0)"><path class="background" aria-hidden="true" d="M0,0h1368.23125v500h-1368.23125Z" fill="transparent" stroke="black" stroke-width="2"/><g><g class="mark-group role-axis" aria-hidden="true"><g transform="translate(0.5,0.5)"><path class="background" aria-hidden="true" d="M0,0h0v0h0Z" pointer-events="none"/><g><g class="mark-rule role-axis-grid" pointer-events="none"><line transform="translate(0,500)" x2="1368.23125" y2="0" stroke="black" stroke-width="1" opacity="1"/><line transform="translate(0,409)" x2="1368.23125" y2="0" stroke="black" stroke-width="1" opacity="1"/><line transform="translate(0,318)" x2="1368.23125" y2="0" stroke="black" stroke-width="1" opacity="1"/><line transform="translate(0,227)" x2="1368.23125" y2="0" stroke="black" stroke-width="1" opacity="1"/><line transform="translate(0,136)" x2="1368.23125" y2="0" stroke="black" stroke-width="1" opacity="1"/><line transform="translate(0,45)" x2="1368.23125" y2="0" stroke="black" stroke-width="1" opacity="1"/></g></g><path class="foreground" aria-hidden="true" d="" pointer-events="none" display="none"/></g></g><g class="mark-group role-axis" role="graphics-symbol" aria-roledescription="axis" aria-label="X-axis titled 'date (year)' for a time scale with values from 2000 to 2010"><g transform="translate(0.5,500.5)"><path class="background" aria-hidden="true" d="M0,0h0v0h0Z" pointer-events="none"/><g><g class="mark-rule role-axis-tick" pointer-events="none"><line transform="translate(0,0)" x2="0" y2="10" stroke="black" stroke-width="2" opacity="1"/><line transform="translate(137,0)" x2="0" y2="10" stroke="black" stroke-width="2" opacity="1"/><line transform="translate(274,0)" x2="0" y2="10" stroke="black" stroke-width="2" opacity="1"/><line transform="translate(411,0)" x2="0" y2="10" stroke="black" stroke-width="2" opacity="1"/><line transform="translate(547,0)" x2="0" y2="10" stroke="black" stroke-width="2" opacity="1"/><line transform="translate(684,0)" x2="0" y2="10" stroke="black" stroke-width="2" opacity="1"/><line transform="translate(821,0)" x2="0" y2="10" stroke="black" stroke-width="2" opacity="1"/><line transform="translate(958,0)" x2="0" y2="10" stroke="black" stroke-width="2" opacity="1"/><line transform="translate(1094,0)" x2="0" y2="10" stroke="black" stroke-width="2" opacity="1"/><line transform="translate(1232,0)" x2="0" y2="10" stroke="black" stroke-width="2" opacity="1"/><line transform="translate(1368,0)" x2="0" y2="10" stroke="black" stroke-width="2" opacity="1"/></g><g class="mark-text role-axis-label" pointer-events="none"><text text-anchor="start" transform="translate(0,43)" font-family="Swell Braille" font-size="29px" fill="#000" opacity="1">2000</text><text text-anchor="middle" transform="translate(137.08531001916234,43)" font-family="Swell Braille" font-size="29px" fill="#000" opacity="1">2001</text><text text-anchor="middle" transform="translate(273.7960700109499,43)" font-family="Swell Braille" font-size="29px" fill="#000" opacity="1">2002</text><text text-anchor="middle" transform="translate(410.5068300027375,43)" font-family="Swell Braille" font-size="29px" fill="#000" opacity="1">2003</text><text text-anchor="middle" transform="translate(547.217589994525,43)" font-family="Swell Braille" font-size="29px" fill="#000" opacity="1">2004</text><text text-anchor="middle" transform="translate(684.3029000136875,43)" font-family="Swell Braille" font-size="29px" fill="#000" opacity="1">2005</text><text text-anchor="middle" transform="translate(821.013660005475,43)" font-family="Swell Braille" font-size="29px" fill="#000" opacity="1">2006</text><text text-anchor="middle" transform="translate(957.7244199972627,43)" font-family="Swell Braille" font-size="29px" fill="#000" opacity="1">2007</text><text text-anchor="middle" transform="translate(1094.43517998905,43)" font-family="Swell Braille" font-size="29px" fill="#000" opacity="1">2008</text><text text-anchor="middle" transform="translate(1231.5204900082124,43)" font-family="Swell Braille" font-size="29px" fill="#000" opacity="1">2009</text><text text-anchor="end" transform="translate(1368.23125,43)" font-family="Swell Braille" font-size="29px" fill="#000" opacity="1">2010</text></g><g class="mark-rule role-axis-domain" pointer-events="none"><line transform="translate(0,0)" x2="1368.23125" y2="0" stroke="black" stroke-width="1" opacity="1"/></g><g class="mark-text role-axis-title" pointer-events="none"><text text-anchor="middle" transform="translate(684.115625,112)" font-family="Swell Braille" font-size="29px" font-weight="bold" fill="#000" opacity="1">date (year)</text></g></g><path class="foreground" aria-hidden="true" d="" pointer-events="none" display="none"/></g></g><g class="mark-group role-axis" role="graphics-symbol" aria-roledescription="axis" aria-label="Y-axis titled 'Mean of price' for a linear scale with values from 0 to 550"><g transform="translate(0.5,0.5)"><path class="background" aria-hidden="true" d="M0,0h0v0h0Z" pointer-events="none"/><g><g class="mark-rule role-axis-tick" pointer-events="none"><line transform="translate(0,500)" x2="-10" y2="0" stroke="black" stroke-width="2" opacity="1"/><line transform="translate(0,409)" x2="-10" y2="0" stroke="black" stroke-width="2" opacity="1"/><line transform="translate(0,318)" x2="-10" y2="0" stroke="black" stroke-width="2" opacity="1"/><line transform="translate(0,227)" x2="-10" y2="0" stroke="black" stroke-width="2" opacity="1"/><line transform="translate(0,136)" x2="-10" y2="0" stroke="black" stroke-width="2" opacity="1"/><line transform="translate(0,45)" x2="-10" y2="0" stroke="black" stroke-width="2" opacity="1"/></g><g class="mark-text role-axis-label" pointer-events="none"><text text-anchor="end" transform="translate(-12,509)" font-family="Swell Braille" font-size="29px" fill="#000" opacity="1">0</text><text text-anchor="end" transform="translate(-12,418.09090909090907)" font-family="Swell Braille" font-size="29px" fill="#000" opacity="1">100</text><text text-anchor="end" transform="translate(-12,327.1818181818182)" font-family="Swell Braille" font-size="29px" fill="#000" opacity="1">200</text><text text-anchor="end" transform="translate(-12,236.27272727272728)" font-family="Swell Braille" font-size="29px" fill="#000" opacity="1">300</text><text text-anchor="end" transform="translate(-12,145.36363636363635)" font-family="Swell Braille" font-size="29px" fill="#000" opacity="1">400</text><text text-anchor="end" transform="translate(-12,54.45454545454547)" font-family="Swell Braille" font-size="29px" fill="#000" opacity="1">500</text></g><g class="mark-rule role-axis-domain" pointer-events="none"><line transform="translate(0,500)" x2="0" y2="-500" stroke="black" stroke-width="1" opacity="1"/></g><g class="mark-text role-axis-title" pointer-events="none"><text text-anchor="start" transform="translate(-59.5,-56)" font-family="Swell Braille" font-size="29px" font-weight="bold" fill="#000" opacity="1">Mean of price</text></g></g><path class="foreground" aria-hidden="true" d="" pointer-events="none" display="none"/></g></g><g class="mark-group role-scope pathgroup" role="graphics-object" aria-roledescription="group mark container"><g transform="translate(0,0)"><path class="background" aria-hidden="true" d="M0,0h1368.23125v500h-1368.23125Z"/><g><g class="mark-line role-mark marks" role="graphics-object" aria-roledescription="line mark container"><path aria-label="date (year): 2000; Mean of price: 29.6733333333; symbol: MSFT" role="graphics-symbol" aria-roledescription="line mark" d="M0,473.024L137.085,476.957L273.796,480.158L410.507,480.969L547.218,479.387L684.303,478.322L821.014,477.492L957.724,473.378L1094.435,477.083L1231.52,479.207L1368.231,474.085" stroke="black" stroke-width="6" stroke-dasharray="10, 10"/></g></g><path class="foreground" aria-hidden="true" d="" display="none"/></g><g transform="translate(0,0)"><path class="background" aria-hidden="true" d="M0,0h1368.23125v500h-1368.23125Z"/><g><g class="mark-line role-mark marks" role="graphics-object" aria-roledescription="line mark container"><path aria-label="date (year): 2000; Mean of price: 43.9308333333; symbol: AMZN" role="graphics-symbol" aria-roledescription="line mark" d="M0,460.063L137.085,489.328L273.796,484.797L410.507,464.53L547.218,460.666L684.303,463.466L821.014,467.044L957.724,436.407L1094.435,437.259L1231.52,417.517L1368.231,387.082" stroke="black" stroke-width="6" stroke-dasharray="0, 0"/></g></g><path class="foreground" aria-hidden="true" d="" display="none"/></g><g transform="translate(0,0)"><path class="background" aria-hidden="true" d="M0,0h1368.23125v500h-1368.23125Z"/><g><g class="mark-line role-mark marks" role="graphics-object" aria-roledescription="line mark container"><path aria-label="date (year): 2000; Mean of price: 96.9141666667; symbol: IBM" role="graphics-symbol" aria-roledescription="line mark" d="M0,411.896L137.085,411.847L273.796,431.705L410.507,429.72L547.218,423.74L684.303,429.548L821.014,428.439L957.724,407.93L1094.435,402.523L1231.52,400.639L1368.231,386.497" stroke="black" stroke-width="6" stroke-dasharray="40, 10"/></g></g><path class="foreground" aria-hidden="true" d="" display="none"/></g><g transform="translate(0,0)"><path class="background" aria-hidden="true" d="M0,0h1368.23125v500h-1368.23125Z"/><g><g class="mark-line role-mark marks" role="graphics-object" aria-roledescription="line mark container"><path aria-label="date (year): 2004; Mean of price: 159.476; symbol: GOOG" role="graphics-symbol" aria-roledescription="line mark" d="M547.218,355.022L684.303,239.57L821.014,122.494L957.724,1.129L1094.435,86.364L1231.52,90.982L1368.231,10.021" stroke="black" stroke-width="6" stroke-dasharray="20, 5"/></g></g><path class="foreground" aria-hidden="true" d="" display="none"/></g><g transform="translate(0,0)"><path class="background" aria-hidden="true" d="M0,0h1368.23125v500h-1368.23125Z"/><g><g class="mark-line role-mark marks" role="graphics-object" aria-roledescription="line mark container"><path aria-label="date (year): 2000; Mean of price: 21.7483333333; symbol: AAPL" role="graphics-symbol" aria-roledescription="line mark" d="M0,480.229L137.085,490.749L273.796,491.447L410.507,491.502L547.218,482.979L684.303,456.208L821.014,434.506L957.724,378.77L1094.435,374.108L1231.52,363.279L1368.231,312.212" stroke="black" stroke-width="6" stroke-dasharray="6, 6"/></g></g><path class="foreground" aria-hidden="true" d="" display="none"/></g></g><g class="mark-group role-legend" role="graphics-symbol" aria-roledescription="legend" aria-label="Symbol legend titled 'symbol' for strokeDash with 5 values: AAPL, AMZN, GOOG, IBM, MSFT"><g transform="translate(1393,0)"><path class="background" aria-hidden="true" d="M0,0h271v479h-271Z" pointer-events="none"/><g><g class="mark-group role-legend-entry"><g transform="translate(60,109)"><path class="background" aria-hidden="true" d="M0,0h0v0h0Z" pointer-events="none"/><g><g class="mark-group role-scope" role="graphics-object" aria-roledescription="group mark container"><g transform="translate(0,0)"><path class="background" aria-hidden="true" d="M0,0h150.3857421875v45.5h-150.3857421875Z" pointer-events="none" opacity="1"/><g><g class="mark-symbol role-legend-symbol" pointer-events="none"><path transform="translate(30.5,30.5)" d="M-77.386,0L27.386,0" fill="transparent" stroke="black" stroke-width="6" stroke-dasharray="10, 10" opacity="1"/></g><g class="mark-text role-legend-label" pointer-events="none"><text text-anchor="start" transform="translate(65,39.5)" font-family="Swell Braille" font-size="29px" fill="#000" opacity="1">AAPL</text></g></g><path class="foreground" aria-hidden="true" d="" pointer-events="none" display="none"/></g><g transform="translate(0,66)"><path class="background" aria-hidden="true" d="M0,0h150.3857421875v45.5h-150.3857421875Z" pointer-events="none" opacity="1"/><g><g class="mark-symbol role-legend-symbol" pointer-events="none"><path transform="translate(30.5,30.5)" d="M-77.386,0L27.386,0" fill="transparent" stroke="black" stroke-width="6" stroke-dasharray="0, 0" opacity="1"/></g><g class="mark-text role-legend-label" pointer-events="none"><text text-anchor="start" transform="translate(65,39.5)" font-family="Swell Braille" font-size="29px" fill="#000" opacity="1">AMZN</text></g></g><path class="foreground" aria-hidden="true" d="" pointer-events="none" display="none"/></g><g transform="translate(0,132)"><path class="background" aria-hidden="true" d="M0,0h150.3857421875v45.5h-150.3857421875Z" pointer-events="none" opacity="1"/><g><g class="mark-symbol role-legend-symbol" pointer-events="none"><path transform="translate(30.5,30.5)" d="M-77.386,0L27.386,0" fill="transparent" stroke="black" stroke-width="6" stroke-dasharray="40, 10" opacity="1"/></g><g class="mark-text role-legend-label" pointer-events="none"><text text-anchor="start" transform="translate(65,39.5)" font-family="Swell Braille" font-size="29px" fill="#000" opacity="1">GOOG</text></g></g><path class="foreground" aria-hidden="true" d="" pointer-events="none" display="none"/></g><g transform="translate(0,198)"><path class="background" aria-hidden="true" d="M0,0h150.3857421875v45.5h-150.3857421875Z" pointer-events="none" opacity="1"/><g><g class="mark-symbol role-legend-symbol" pointer-events="none"><path transform="translate(30.5,30.5)" d="M-77.386,0L27.386,0" fill="transparent" stroke="black" stroke-width="6" stroke-dasharray="20, 5" opacity="1"/></g><g class="mark-text role-legend-label" pointer-events="none"><text text-anchor="start" transform="translate(65,39.5)" font-family="Swell Braille" font-size="29px" fill="#000" opacity="1">IBM</text></g></g><path class="foreground" aria-hidden="true" d="" pointer-events="none" display="none"/></g><g transform="translate(0,264)"><path class="background" aria-hidden="true" d="M0,0h150.3857421875v45.5h-150.3857421875Z" pointer-events="none" opacity="1"/><g><g class="mark-symbol role-legend-symbol" pointer-events="none"><path transform="translate(30.5,30.5)" d="M-77.386,0L27.386,0" fill="transparent" stroke="black" stroke-width="6" stroke-dasharray="6, 6" opacity="1"/></g><g class="mark-text role-legend-label" pointer-events="none"><text text-anchor="start" transform="translate(65,39.5)" font-family="Swell Braille" font-size="29px" fill="#000" opacity="1">MSFT</text></g></g><path class="foreground" aria-hidden="true" d="" pointer-events="none" display="none"/></g></g></g><path class="foreground" aria-hidden="true" d="" pointer-events="none" display="none"/></g></g><g class="mark-text role-legend-title" pointer-events="none"><text text-anchor="start" transform="translate(60,83)" font-family="Swell Braille" font-size="29px" font-weight="bold" fill="#000" opacity="1">symbol</text></g></g><path class="foreground" aria-hidden="true" d="" pointer-events="none" display="none"/></g></g><g class="mark-group role-title"><g transform="translate(684.115625,-128)"><path class="background" aria-hidden="true" d="M0,0h0v0h0Z" pointer-events="none"/><g><g class="mark-text role-title-text" role="graphics-symbol" aria-roledescription="title" aria-label="Title text 'Stock prices of 5 Tech Companies over Time.'" pointer-events="none"><text text-anchor="middle" transform="translate(0,23)" font-family="Swell Braille" font-size="29px" font-weight="bold" fill="#000" opacity="1">Stock prices of 5 Tech Companies over Time.</text></g></g><path class="foreground" aria-hidden="true" d="" pointer-events="none" display="none"/></g></g></g><path class="foreground" aria-hidden="true" d="" display="none"/></g></g></g><defs><pattern id="densely_dotted" width="2.5mm" height="2.5mm" patternUnits="userSpaceOnUse"><circle cx="1.25mm" cy="1.25mm" r="0.6mm" fill="black"/></pattern><pattern id="vertical_line" width="5mm" height="0.5mm" patternUnits="userSpaceOnUse"><line x1="1.25mm" y1="-1mm" x2="1.25mm" y2="1.5mm" stroke="black" stroke-width="1.3mm"/></pattern><pattern id="horizontal_line" width="0.5mm" height="5mm" patternUnits="userSpaceOnUse"><line x1="-1mm" y1="1.25mm" x2="1.5mm" y2="1.25mm" stroke="black" stroke-width="1.3mm"/></pattern><pattern id="dotted" width="10mm" height="10mm" patternUnits="userSpaceOnUse" fill="black" stroke="none"><circle cx="1.25mm" cy="1.25mm" r="1mm"><circle cx="6.25mm" cy="6.25mm" r="1mm"/></circle></pattern><pattern id="dashed_line" width="7.62mm" height="7.62mm" patternUnits="userSpaceOnUse" stroke="black" stroke-width="1mm"><line x1="1.25mm" y1="1.1mm" x2="1.25mm" y2="6mm"><line x1="6.28mm" y1="1.1mm" x2="6.28mm" y2="6mm"/></line></pattern><pattern id="grid_pattern" width="7.5mm" height="7.5mm" patternUnits="userSpaceOnUse" stroke="black" stroke-width="1.3mm"><line x1="3.75mm" y1="-1mm" x2="3.75mm" y2="8.5mm"><line x1="-1mm" y1="3.75mm" x2="8.5mm" y2="3.75mm"/></line></pattern><pattern id="diagonal_line_left" width="10.16mm" height="10.16mm" patternUnits="userSpaceOnUse"><line x1="5.85mm" y1="-1.27mm" x2="18.55mm" y2="11.43mm" stroke="black" stroke-width="0.8mm"><line x1="-1.77mm" y1="1.27mm" x2="8.39mm" y2="11.43mm" stroke="black" stroke-width="0.8mm"/></line></pattern><pattern id="diagonal_line_right" width="5.08mm" height="5.08mm" patternUnits="userSpaceOnUse"><line x1="7.12mm" y1="-1.27mm" x2="-0.5mm" y2="6.35mm" stroke="black" stroke-width="0.8mm"><line x1="2.04mm" y1="-1.27mm" x2="-1.77mm" y2="2.54mm" stroke="black" stroke-width="0.8mm"/></line></pattern><pattern id="fill_black" width="1" height="1" patternUnits="userSpaceOnUse"><rect width="1" height="1" fill="black"/></pattern></defs></svg>